<?xml version="1.0" encoding="UTF-8" standalone="no"?>
<svg
   xmlns:dc="http://purl.org/dc/elements/1.1/"
   xmlns:cc="http://creativecommons.org/ns#"
   xmlns:rdf="http://www.w3.org/1999/02/22-rdf-syntax-ns#"
   xmlns:svg="http://www.w3.org/2000/svg"
   xmlns="http://www.w3.org/2000/svg"
   id="svg5271"
   version="1.1"
   viewBox="0 0 264.58333 264.58334"
   height="1000"
   width="1000">
  <defs
     id="defs5265" />
  <metadata
     id="metadata5268">
    <rdf:RDF>
      <cc:Work
         rdf:about="">
        <dc:format>image/svg+xml</dc:format>
        <dc:type
           rdf:resource="http://purl.org/dc/dcmitype/StillImage" />
        <dc:title></dc:title>
      </cc:Work>
    </rdf:RDF>
  </metadata>
  <g
     transform="translate(0,-32.41665)"
     id="layer1">
    <g
       id="g5250"
       transform="matrix(3.3828381,0,0,3.3828381,114.9281,-243.29722)">
      <path
         id="path4000"
         style="fill:#003399;fill-rule:evenodd;stroke-width:0.26458332"
         d="m -11.593595,124.28904 c 0,1.16271 -0.438944,2.16882 -1.31662,3.01834 -0.877649,0.8495 -1.917091,1.27439 -3.118326,1.27439 H -23.8129 c -1.201208,0 -2.24065,-0.42489 -3.1183,-1.27439 -0.877676,-0.84952 -1.316646,-1.85563 -1.316646,-3.01834 v -5.3884 c 0,-1.16242 0.384678,-2.11627 1.262354,-2.96577 0.877649,-0.84952 1.971384,-1.32696 3.172592,-1.32696 h 7.784359 c 1.201235,0 2.240677,0.42489 3.118326,1.27442 0.877676,0.8495 1.31662,1.85589 1.31662,3.01831 z m -3.326209,0 v -5.3884 c 0,-0.26829 -0.115385,-0.51414 -0.346472,-0.73781 -0.231087,-0.22339 -0.485087,-0.33536 -0.762265,-0.33536 H -23.8129 c -0.230796,0 -0.47334,0.12305 -0.727604,0.3689 -0.254,0.24612 -0.381132,0.48088 -0.381132,0.70427 v 5.3884 c 0,0.26829 0.115411,0.51414 0.346498,0.73782 0.231061,0.22365 0.485061,0.33536 0.762238,0.33536 h 7.784359 c 0.308028,0 0.569648,-0.1043 0.785442,-0.31293 0.21553,-0.20888 0.323295,-0.46212 0.323295,-0.76025 z m 21.8053701,-5.3435 -4.4581497,7.48985 c -0.8623829,1.43103 -2.15582501,2.14638 -3.8805908,2.14638 -1.6939154,0 -2.972091,-0.71535 -3.8344739,-2.14638 l -4.5042402,-7.48985 v -4.33763 h 3.3494133 v 3.42077 c 0.7546181,1.38639 1.5092362,2.76511 2.2635633,4.13642 1.2473252,2.13132 2.1560896,3.19712 2.7257375,3.19712 0.60076289,0 1.52452913,-1.05074 2.7718543,-3.15249 0.7393252,-1.37133 1.4860323,-2.74264 2.2406504,-4.11398 v -3.48784 h 3.3262358 z m -6.65244512,9.63623 H -3.1162659 Z m 21.80537102,0 h -8.893096 c -1.201235,0 -2.240677,-0.42489 -3.118326,-1.27439 -0.8776496,-0.84952 -1.3166198,-1.85563 -1.3166198,-3.01834 v -5.3884 c 0,-1.16242 0.4389702,-2.16881 1.3166198,-3.01831 0.877649,-0.84953 1.917091,-1.27442 3.118326,-1.27442 h 8.754507 v 3.21956 h -8.754507 c -0.554381,0 -0.900853,0.25349 -1.039442,0.76025 -0.04612,0.17878 -0.06929,0.6409 -0.06929,1.38613 h 9.44745 v 3.24199 h -9.44745 v 1.0732 c 0,0.26829 0.115411,0.51414 0.346471,0.73782 0.231088,0.22365 0.485088,0.33536 0.762265,0.33536 h 8.893096 z m 16.677428,0 h -3.349387 c 0,-0.0597 0.02328,-0.40243 0.06929,-1.02854 0.04609,-0.62587 0.06929,-1.15506 0.06929,-1.58734 0,-1.83346 -0.361765,-2.75005 -1.085559,-2.75005 h -7.946126 v 5.36593 h -3.326209 v -13.97386 h 10.856568 c 1.200944,0 2.244196,0.42119 3.129783,1.26331 0.88556,0.84214 1.328076,1.85195 1.328076,3.02942 0,0.93906 -0.277177,1.81102 -0.831559,2.61591 0.723794,0.7901 1.085824,1.71408 1.085824,2.77249 z m -3.488002,-9.68113 c 0,-0.29813 -0.111575,-0.55136 -0.335016,-0.75999 -0.223149,-0.20889 -0.48125,-0.31318 -0.773721,-0.31318 h -7.645744 v 2.14638 h 7.645744 c 0.308028,0 0.569648,-0.10433 0.785469,-0.31293 0.215529,-0.20862 0.323268,-0.46212 0.323268,-0.76028 z" />
      <path
         id="path4002"
         style="fill:#003399;fill-rule:evenodd;stroke-width:0.26458332"
         d="M -0.95200068,88.427072 -1.0646603,124.47494 c 0.59420128,-0.25641 1.0017919,-0.89705 2.0357571,-2.71413 0.7685352,-1.35072 1.3174662,-2.49864 2.0720843,-3.86998 l -0.00238,-3.77039 4.3711018,-0.0246 -0.025929,5.0055 -4.654841,7.90313 c -0.7202223,1.22316 -2.76801791,2.00403 -3.8942169,2.08483 v 8.07821 c 0,5.81485 2.0979871,7.47718 8.2969893,7.47718 H 30.022083 c 4.577635,0 7.547795,-2.22954 7.547795,-5.64505 0,-3.2309 -2.623423,-5.16366 -7.295171,-5.1449 l -19.325987,0.0782 0.0404,-5.40105 c -0.319749,-0.18642 -0.957606,-0.60446 -1.2432501,-0.88095 -0.8776493,-0.8495 -1.4440429,-1.9153 -1.4707658,-3.07774 l -0.1293283,-5.58115 c -0.026723,-1.16218 0.5295635,-2.5763 1.4072129,-3.4258 0.2910946,-0.28178 0.7734293,-0.64328 1.1002693,-0.83156 l 0.01392,-26.307598 c 0.0024,-4.430871 -2.0073932,-6.923167 -5.5360352,-6.923167 -4.005527,0 -6.0830618,2.399877 -6.0830618,6.923167 z" />
      <path
         id="path4004"
         style="fill:#b2b2b2;fill-rule:evenodd;stroke-width:0.26458332"
         d="m -30.522601,113.72063 3.317478,-3.21112 h 19.3377078 l -3.5316578,3.41842 h -19.332522 c 0.06876,-0.07 0.138059,-0.13864 0.208994,-0.2073 z m 4.674209,-4.52435 3.100308,-3.0009 h 19.3374427 l -3.1003345,3.0009 z m 4.457038,-4.31414 2.812785,-2.72256 h 16.2608421 v 2.72256 z m 4.169516,-4.03579 2.23766,-2.165907 h 12.6664511 v 2.165907 z m 3.594391,-3.47914 1.950111,-1.88759 h 9.3596091 v 1.919023 z m 3.306842,-3.200823 1.5187873,-1.470078 h 6.4840908 v 1.470078 z m 2.8755177,-2.783311 0.9436629,-0.913421 h 4.1836975 v 0.913421 z m 2.3001288,-2.226654 1.9495558,-1.887034 c 0.4547923,-0.440214 0.3713162,-0.52287 0.8776758,-0.876195 v 2.763229 z m -7.6108455,26.084738 -0.132027,0.28573 c -0.179255,-0.15105 -0.202168,-0.20704 -0.3937,-0.3251 z m -3.004,2.96313 c -0.259185,0.34462 -0.315118,0.49461 -0.493527,0.87278 l -8.15377,-0.0262 c 0,-0.5643 0.510725,-0.88964 1.097571,-0.88675 z m -13.002842,0.84661 -4.871455,0.0262 c 0.340731,-1.35311 0.938504,-2.65658 1.792155,-3.83591 h 4.996683 c -0.286755,0.17667 -0.477996,0.39108 -0.736362,0.64117 -0.914215,0.8849 -1.181021,2.02224 -1.181021,3.16857 z m 12.174273,1.33937 c -0.312631,1.42071 -0.121391,2.92883 0.567214,4.25342 l -8.108474,-0.0341 c -0.04884,-0.1138 -0.287813,-0.30472 -0.287813,-0.42804 l -2.65e-4,-3.72343 z m -12.222824,4.18291 -4.802716,0.0705 c -0.3615,-1.3906 -0.450162,-2.83589 -0.268473,-4.25342 l 5.017426,0.0367 z m 15.927176,3.55782 2.352252,2.35765 h -19.407267 l -0.583565,-0.56486 c -1.201235,-1.16244 -2.088171,-2.51873 -2.662184,-3.96687 h 4.656772 c 0.21934,0.4872 0.758428,1.26807 1.185122,1.68106 0.877649,0.84952 2.293858,1.55408 3.494801,1.5517 l 7.909587,-0.0153 c 1.000416,-0.002 2.278856,-0.455 3.054482,-1.04336 z m 3.6860692,3.67086 5.026951,4.94924 H -23.469127 l -5.113179,-4.94924 z m 6.3607684,6.26247 0.4179623,0.83524 c 0.2218002,1.7648 0.4899819,3.00329 1.3463588,3.94443 l -16.0297547,0.0695 -5.009779,-4.84913 z m 3.9392489,6.64853 c 1.312254,0.52152 3.617304,1.02828 5.8713423,1.01931 l 17.6380242,-0.0694 -4.769696,4.61676 H -9.4925918 l -5.9663012,-5.70552 z m 17.3829395,6.87986 -4.940485,4.78205 c -4.6032737,4.45648 -12.1366226,4.45648 -16.7399227,0 l -4.9404587,-4.78205 z M 12.04129,85.927633 c 0.677412,0.425952 0.910669,0.768455 1.50323,1.341755 l 1.949582,1.887034 -3.452812,-0.03141 z m 4.809252,4.542022 0.943689,0.913421 H 12.04129 v -0.913421 z m 2.300419,2.226654 1.518788,1.470078 H 12.04129 v -1.470078 z m 2.875518,2.783311 1.950112,1.88759 H 12.04129 v -1.918758 z m 3.306578,3.200823 2.23766,2.165907 H 12.04129 v -2.134501 z m 3.594391,3.479137 2.812759,2.72256 H 12.476159 l -0.434869,-0.54819 v -2.17437 z m 4.169489,4.0358 3.100308,3.0009 H 16.677028 l -3.100044,-3.0009 z m 4.457039,4.31413 3.317504,3.21112 c 0.07093,0.0687 0.140494,0.13732 0.208968,0.2073 H 21.565417 l -3.531659,-3.41842 z m 4.634388,4.73165 c 0.851482,1.18277 1.433407,2.48439 1.753685,3.83591 h -4.60629 c 0.03903,-1.05471 -0.278818,-2.36768 -1.160277,-3.20585 -0.257281,-0.24453 -0.585761,-0.50912 -0.87085,-0.68316 z m -7.750254,3.79918 -7.210055,0.0367 -0.07586,-0.65781 7.02183,-0.0203 c 0.374862,-10e-4 0.329565,0.22368 0.264081,0.64143 z m -11.290882,-3.58132 -0.225081,-0.21786 h 0.225081 z m 21.022627,4.93125 c 0.158512,1.4128 0.04583,2.85541 -0.329829,4.25342 l -4.203065,-0.0367 -0.05866,-0.62769 c -0.09821,-1.05336 -0.430239,-1.37713 -0.832089,-2.35657 -0.164782,-0.4014 0.09303,-0.73729 0.230241,-1.12625 z m -9.468749,4.25342 -7.395845,0.0367 c 0,-0.38476 -0.113506,-0.50385 -0.02302,-0.87752 l 6.759099,-0.0364 c 0.521626,-0.003 0.513979,-0.075 0.659659,0.87725 z m 8.703495,1.31323 c -0.564753,1.42465 -1.412663,2.77537 -2.533121,3.96687 l -0.531177,0.56486 H 20.730577 l 1.962679,-1.92034 -0.03765,0.63695 4.649919,0.0367 v -3.28504 c 0.633228,0 7.405688,0.0288 7.405688,0.0457 0,0.43227 -0.02461,0.92583 -0.06956,1.55064 -0.04503,0.62505 -0.03138,1.66577 -0.03138,1.72543 l 4.824254,-0.0364 0.113506,-3.24861 z m -4.299638,5.84494 -2.30124,2.44663 c -0.534432,-0.16055 -0.95541,-0.59336 -1.496139,-0.82998 -1.232588,-0.53951 -2.201916,-0.97655 -3.518535,-0.97655 l -13.063141,0.0771 0.680958,-0.71723 z" />
      <path
         id="path4006"
         style="fill:#cccccc;fill-rule:evenodd;stroke-width:0.26458332"
         d="M 10.577615,142.54619 H 4.6888101 c -0.7954433,0 -1.483704,-0.19976 -2.0649935,-0.59894 -0.5814484,-0.39904 -0.8716169,-0.87177 -0.8716169,-1.41801 v -4.54903 h 2.2023387 c 0,0.7003 -0.025347,1.46727 -0.076491,2.30087 -0.050853,0.83344 -0.07665,1.33416 -0.07665,1.50215 0,0.55345 0.1277937,0.91228 0.382614,1.07685 0.2549789,0.16457 0.8056033,0.24683 1.6517143,0.24683 0.2346325,0 0.8720667,-0.0124 1.9121437,-0.0366 1.0400771,-0.0246 1.9835019,-0.0371 2.8297456,-0.0371 z m 2.936769,0 h -2.202339 v -6.56598 h 2.202339 z m 11.043682,0 h -2.218108 v -4.54888 c 0,-0.13311 -0.07649,-0.25042 -0.229182,-0.35179 -0.152982,-0.10167 -0.321443,-0.15237 -0.504772,-0.15237 h -4.420447 c -0.204311,0 -0.377613,0.0491 -0.520277,0.14706 -0.142663,0.0979 -0.214153,0.21711 -0.214153,0.3571 v 4.54888 h -2.202339 v -4.54888 c 0,-0.54623 0.290327,-1.0188 0.871617,-1.41816 0.581289,-0.39921 1.26955,-0.59894 2.065152,-0.59894 h 4.420447 c 0.795099,0 1.4859,0.19786 2.072322,0.59362 0.58629,0.3956 0.87974,0.87021 0.87974,1.42348 z m 9.559845,0 H 28.22908 c -0.795417,0 -1.483704,-0.19976 -2.065126,-0.59894 -0.581289,-0.39904 -0.871617,-0.87177 -0.871617,-1.41801 v -2.53193 c 0,-0.54623 0.290328,-1.0188 0.871617,-1.41816 0.581422,-0.39921 1.269709,-0.59894 2.065126,-0.59894 h 5.797021 v 1.51294 H 28.22908 c -0.367109,0 -0.596768,0.11904 -0.688261,0.35698 -0.03066,0.0843 -0.04614,0.30128 -0.04614,0.65151 h 6.256099 v 1.52312 h -6.256099 v 0.50448 c 0,0.12592 0.07665,0.24152 0.229632,0.34664 0.152982,0.1048 0.320992,0.15737 0.504772,0.15737 h 5.888831 z" />
    </g>
  </g>
</svg>
