<?xml version="1.0" encoding="UTF-8" standalone="no"?>
<svg
   xmlns:dc="http://purl.org/dc/elements/1.1/"
   xmlns:cc="http://creativecommons.org/ns#"
   xmlns:rdf="http://www.w3.org/1999/02/22-rdf-syntax-ns#"
   xmlns:svg="http://www.w3.org/2000/svg"
   xmlns="http://www.w3.org/2000/svg"
   id="svg5376"
   version="1.1"
   viewBox="0 0 264.58333 264.58334"
   height="1000"
   width="1000">
  <defs
     id="defs5370" />
  <metadata
     id="metadata5373">
    <rdf:RDF>
      <cc:Work
         rdf:about="">
        <dc:format>image/svg+xml</dc:format>
        <dc:type
           rdf:resource="http://purl.org/dc/dcmitype/StillImage" />
        <dc:title></dc:title>
      </cc:Work>
    </rdf:RDF>
  </metadata>
  <g
     transform="translate(0,-32.41665)"
     id="layer1">
    <g
       id="g5323"
       transform="matrix(3.7693944,0,0,3.7693944,-1016.3166,-62.545609)">
      <path
         d="m 289.70847,63.590604 c 0,1.043464 -0.39397,1.946408 -1.1816,2.708805 -0.78767,0.762396 -1.72051,1.143714 -2.79855,1.143714 h -6.98606 c -1.07805,0 -2.01089,-0.381318 -2.79853,-1.143714 -0.78766,-0.762397 -1.1816,-1.665341 -1.1816,-2.708805 v -4.835789 c 0,-1.043252 0.34523,-1.899259 1.13287,-2.661656 0.78766,-0.762396 1.76921,-1.190863 2.84726,-1.190863 h 6.98606 c 1.07804,0 2.01088,0.381318 2.79855,1.143715 0.78763,0.762397 1.1816,1.665552 1.1816,2.708804 z m -2.98511,0 v -4.835789 c 0,-0.240797 -0.10358,-0.461433 -0.31096,-0.662173 -0.20738,-0.200475 -0.43532,-0.300963 -0.68408,-0.300963 h -6.98606 c -0.20714,0 -0.42479,0.110437 -0.65299,0.331073 -0.22794,0.220874 -0.34206,0.431562 -0.34206,0.632063 v 4.835789 c 0,0.240771 0.10359,0.461407 0.31097,0.662147 0.20738,0.200739 0.43532,0.30099 0.68408,0.30099 h 6.98606 c 0.27643,0 0.51122,-0.09364 0.7049,-0.280856 0.19341,-0.187457 0.29014,-0.414734 0.29014,-0.682281 z m 19.56919,-4.79552 -4.00097,6.721766 c -0.77394,1.284261 -1.93472,1.926273 -3.48261,1.926273 -1.52021,0 -2.66732,-0.642012 -3.44125,-1.926273 l -4.04233,-6.721766 v -3.892788 h 3.00591 v 3.069961 c 0.67725,1.244203 1.35448,2.481527 2.03147,3.712236 1.1194,1.912752 1.93497,2.869248 2.4462,2.869248 0.53914,0 1.36816,-0.943002 2.48759,-2.829216 0.66352,-1.230683 1.33366,-2.461366 2.01088,-3.692076 v -3.130153 h 2.98511 z m -5.97021,8.648039 h -3.00594 z m 19.56919,0 h -7.98111 c -1.07804,0 -2.01088,-0.381318 -2.79852,-1.143714 -0.78767,-0.762397 -1.1816,-1.665341 -1.1816,-2.708805 v -4.835789 c 0,-1.043252 0.39393,-1.946407 1.1816,-2.708804 0.78764,-0.762397 1.72048,-1.143715 2.79852,-1.143715 h 7.85673 v 2.889383 h -7.85673 c -0.49752,0 -0.80846,0.227515 -0.93284,0.682281 -0.0414,0.160443 -0.0622,0.575177 -0.0622,1.243965 h 8.47863 v 2.909543 h -8.47863 v 0.963136 c 0,0.240771 0.10359,0.461407 0.31097,0.662147 0.20738,0.200739 0.43532,0.30099 0.68408,0.30099 h 7.9811 z m 14.96713,0 h -3.0059 c 0,-0.05355 0.0209,-0.361183 0.0622,-0.923078 0.0414,-0.561684 0.0622,-1.036611 0.0622,-1.424544 0,-1.645443 -0.32467,-2.468033 -0.97422,-2.468033 h -7.13127 v 4.815655 h -2.9851 V 54.902296 h 9.74322 c 1.07778,0 2.01406,0.377984 2.80882,1.13374 0.79476,0.755782 1.1919,1.662033 1.1919,2.718779 0,0.842724 -0.24877,1.625282 -0.74629,2.347621 0.64955,0.709084 0.97446,1.538314 0.97446,2.488168 z m -3.13028,-8.688308 c 0,-0.267573 -0.10015,-0.49485 -0.30068,-0.68207 -0.20029,-0.187457 -0.4319,-0.281066 -0.69437,-0.281066 h -6.86168 v 1.926246 h 6.86168 c 0.27644,0 0.51123,-0.09361 0.7049,-0.280829 0.19344,-0.187219 0.29015,-0.414734 0.29015,-0.682281 z"
         style="fill:#6e7071;fill-rule:evenodd;stroke-width:0.26458332"
         id="path3782" />
      <path
         d="m 299.25874,31.406318 -0.10113,32.351133 c 0.53327,-0.230135 0.89906,-0.805075 1.827,-2.435807 0.68975,-1.212189 1.18235,-2.242397 1.85958,-3.47308 l -0.002,-3.383756 3.92284,-0.02204 -0.0233,4.492149 -4.17748,7.092659 c -0.64638,1.097729 -2.48417,1.798531 -3.49485,1.871027 v 7.249795 c 0,5.218536 1.88282,6.710389 7.44611,6.710389 h 20.54096 c 4.10819,0 6.77378,-2.000912 6.77378,-5.066162 0,-2.899569 -2.35439,-4.634098 -6.54706,-4.617271 l -17.34407,0.07014 0.0362,-4.847167 c -0.28697,-0.167321 -0.8594,-0.542473 -1.11575,-0.7906 -0.78766,-0.762396 -1.29596,-1.718892 -1.31995,-2.762117 l -0.11605,-5.008801 c -0.0241,-1.043014 0.47524,-2.312088 1.26288,-3.074485 0.26125,-0.252862 0.69414,-0.57732 0.98745,-0.746283 l 0.0124,-23.609723 c 0.003,-3.976449 -1.80154,-6.213184 -4.96831,-6.213184 -3.59477,0 -5.45923,2.153788 -5.45923,6.213184 z"
         style="fill:#6e7071;fill-rule:evenodd;stroke-width:0.26458332"
         id="path3784" />
      <path
         d="m 320.88655,55.666096 -0.20199,-0.195501 h 0.20199 z"
         style="fill:#af1821;fill-opacity:1;fill-rule:evenodd;stroke-width:0.26458332"
         id="path3786" />
      <path
         id="path3848"
         style="fill:#af1821;fill-rule:evenodd;stroke-width:0.26458332"
         d="m 288.55036,67.038575 2.11103,2.115847 h -17.41704 l -0.52372,-0.506915 c -1.07804,-1.043226 -1.87402,-2.260415 -2.38916,-3.560075 h 4.1792 c 0.19685,0.43725 0.68067,1.138026 1.0636,1.508681 0.78764,0.762397 2.05862,1.394698 3.1364,1.392555 l 7.09845,-0.01373 c 0.89784,-0.0016 2.04515,-0.408332 2.74124,-0.936361 z" />
      <path
         id="path3850"
         style="fill:#af1821;fill-rule:evenodd;stroke-width:0.26458332"
         d="m 285.2259,60.091675 c -0.28059,1.275001 -0.10896,2.628451 0.50903,3.817197 l -7.27694,-0.03056 c -0.0438,-0.102156 -0.25829,-0.2735 -0.25829,-0.384175 l -2.6e-4,-3.341555 z" />
      <path
         id="path3852"
         style="fill:#af1821;fill-rule:evenodd;stroke-width:0.26458332"
         d="m 285.96948,58.129869 c -0.23259,0.309272 -0.28278,0.443865 -0.44291,0.783246 l -7.31758,-0.02347 c 0,-0.506439 0.45834,-0.798407 0.98499,-0.795814 z" />
      <path
         d="m 335.20781,70.332982 -2.06524,2.195724 c -0.47963,-0.144092 -0.85743,-0.532527 -1.3427,-0.744855 -1.1062,-0.484188 -1.97612,-0.876406 -3.15773,-0.876406 l -11.7235,0.06921 0.61114,-0.643678 z"
         style="fill:#af1821;fill-rule:evenodd;stroke-width:0.26458332"
         id="path3854" />
      <path
         d="m 339.06652,65.087432 c -0.50684,1.278573 -1.26781,2.490761 -2.27336,3.560075 l -0.4767,0.506915 h -17.5987 l 1.76138,-1.72339 -0.0338,0.571632 4.17306,0.03294 v -2.948173 c 0.56828,0 6.64623,0.02582 6.64623,0.04101 0,0.387933 -0.022,0.830871 -0.0624,1.391603 -0.0404,0.560943 -0.0281,1.494922 -0.0281,1.5485 l 4.32953,-0.0327 0.10187,-2.91547 z"
         style="fill:#af1821;fill-rule:evenodd;stroke-width:0.26458332"
         id="path3856" />
      <path
         d="m 331.25559,63.908872 -6.63741,0.03294 c 0,-0.345282 -0.10187,-0.452173 -0.0206,-0.787506 l 6.06594,-0.0327 c 0.46813,-0.0026 0.46128,-0.06731 0.59203,0.787268 z"
         style="fill:#af1821;fill-rule:evenodd;stroke-width:0.26458332"
         id="path3858" />
      <path
         d="m 339.7533,60.091675 c 0.14224,1.267884 0.0411,2.562569 -0.29602,3.817197 l -3.77203,-0.03294 -0.0526,-0.563324 c -0.0882,-0.945356 -0.38613,-1.235895 -0.74678,-2.114894 -0.14788,-0.36023 0.0835,-0.661696 0.20666,-1.010788 z"
         style="fill:#af1821;fill-rule:evenodd;stroke-width:0.26458332"
         id="path3860" />
      <path
         d="m 331.01956,58.880175 -6.47068,0.03294 -0.068,-0.590338 6.30171,-0.01826 c 0.33642,-0.0011 0.29578,0.200739 0.23702,0.575654 z"
         style="fill:#af1821;fill-rule:evenodd;stroke-width:0.26458332"
         id="path3862" />
      <path
         d="m 337.975,55.470595 c 0.76415,1.061482 1.28641,2.229591 1.57385,3.44252 h -4.1339 c 0.035,-0.946546 -0.25022,-2.124868 -1.04132,-2.877052 -0.23088,-0.219472 -0.52568,-0.456936 -0.78153,-0.613119 z"
         style="fill:#af1821;fill-rule:evenodd;stroke-width:0.26458332"
         id="path3864" />
      <path
         d="m 333.81589,51.224192 2.97727,2.881815 c 0.0637,0.06162 0.1261,0.123216 0.18754,0.186028 h -17.51375 l -3.16947,-3.067843 z"
         style="fill:#af1821;fill-rule:evenodd;stroke-width:0.26458332"
         id="path3866" />
      <path
         d="m 329.81592,47.352464 2.78238,2.693168 h -17.51841 l -2.78212,-2.693168 z"
         style="fill:#af1821;fill-rule:evenodd;stroke-width:0.26458332"
         id="path3868" />
      <path
         d="m 326.07402,43.730557 2.52431,2.443374 h -17.28851 l -0.39026,-0.491993 v -1.951381 z"
         style="fill:#af1821;fill-rule:evenodd;stroke-width:0.26458332"
         id="path3870" />
      <path
         d="m 322.84822,40.608182 2.00819,1.943815 h -13.93685 v -1.91561 z"
         style="fill:#af1821;fill-rule:evenodd;stroke-width:0.26458332"
         id="path3872" />
      <path
         d="m 319.88073,37.735628 1.75014,1.694021 h -10.71131 v -1.721988 z"
         style="fill:#af1821;fill-rule:evenodd;stroke-width:0.26458332"
         id="path3874" />
      <path
         d="m 317.30012,35.237749 1.36303,1.319319 h -7.74359 v -1.319319 z"
         style="fill:#af1821;fill-rule:evenodd;stroke-width:0.26458332"
         id="path3876" />
      <path
         d="m 315.23563,33.239457 0.8469,0.819732 h -5.16297 v -0.819732 z"
         style="fill:#af1821;fill-rule:evenodd;stroke-width:0.26458332"
         id="path3878" />
      <path
         d="m 310.91956,29.163207 c 0.60793,0.38227 0.81727,0.689637 1.34906,1.204145 l 1.74963,1.693545 -3.09869,-0.0282 z"
         style="fill:#af1821;fill-rule:evenodd;stroke-width:0.26458332"
         id="path3880" />
      <path
         d="m 316.70245,88.094249 -4.43383,4.291674 c -4.13121,3.999442 -10.892,3.999442 -15.0232,0 l -4.43384,-4.291674 z"
         style="fill:#af1821;fill-rule:evenodd;stroke-width:0.26458332"
         id="path3882" />
      <path
         d="m 301.10214,81.919932 c 1.17769,0.468048 3.24636,0.922841 5.26923,0.914771 l 15.82926,-0.06231 -4.28057,4.143296 h -26.32609 l -5.35443,-5.120428 z"
         style="fill:#af1821;fill-rule:evenodd;stroke-width:0.26458332"
         id="path3884" />
      <path
         d="m 297.56689,75.953208 0.3751,0.749617 c 0.19904,1.583796 0.43973,2.695284 1.20829,3.539914 l -14.38589,0.06234 -4.49604,-4.351867 z"
         style="fill:#af1821;fill-rule:evenodd;stroke-width:0.26458332"
         id="path3886" />
      <path
         d="m 291.85842,70.332982 4.51144,4.441692 h -17.3191 l -4.58883,-4.441692 z"
         style="fill:#af1821;fill-rule:evenodd;stroke-width:0.26458332"
         id="path3888" />
      <path
         d="m 274.25651,63.84561 -4.31017,0.06326 c -0.32443,-1.247987 -0.40399,-2.545027 -0.24093,-3.817197 l 4.50287,0.03294 z"
         style="fill:#af1821;fill-rule:evenodd;stroke-width:0.26458332"
         id="path3890" />
      <path
         d="m 274.30012,58.889647 -4.3719,0.02347 c 0.30581,-1.214331 0.84225,-2.384133 1.60835,-3.44252 h 4.48429 c -0.25733,0.158539 -0.42897,0.35097 -0.66085,0.575416 -0.82045,0.794147 -1.05989,1.814857 -1.05989,2.843636 z"
         style="fill:#af1821;fill-rule:evenodd;stroke-width:0.26458332"
         id="path3892" />
      <path
         d="m 295.49578,32.060897 1.74964,-1.693545 c 0.40814,-0.395049 0.33321,-0.469238 0.78763,-0.786341 v 2.479886 z"
         style="fill:#af1821;fill-rule:evenodd;stroke-width:0.26458332"
         id="path3894" />
      <path
         d="m 293.4315,34.059189 0.84693,-0.819732 h 3.75462 v 0.819732 z"
         style="fill:#af1821;fill-rule:evenodd;stroke-width:0.26458332"
         id="path3896" />
      <path
         d="m 290.85089,36.557068 1.36302,-1.319319 h 5.81914 v 1.319319 z"
         style="fill:#af1821;fill-rule:evenodd;stroke-width:0.26458332"
         id="path3898" />
      <path
         d="m 287.88316,39.429649 1.75014,-1.694021 h 8.39975 v 1.722225 z"
         style="fill:#af1821;fill-rule:evenodd;stroke-width:0.26458332"
         id="path3900" />
      <path
         d="m 284.65739,42.551997 2.00819,-1.943815 h 11.36747 v 1.943815 z"
         style="fill:#af1821;fill-rule:evenodd;stroke-width:0.26458332"
         id="path3902" />
      <path
         d="m 280.91547,46.173931 2.52431,-2.443374 h 14.59327 v 2.443374 z"
         style="fill:#af1821;fill-rule:evenodd;stroke-width:0.26458332"
         id="path3904" />
      <path
         d="m 276.9155,50.045632 2.78238,-2.693168 h 17.35434 l -2.78236,2.693168 z"
         style="fill:#af1821;fill-rule:evenodd;stroke-width:0.26458332"
         id="path3906" />
      <path
         d="m 272.72063,54.106007 2.97728,-2.881815 h 17.3546 l -3.16947,3.067843 H 272.5331 c 0.0617,-0.06281 0.12387,-0.124407 0.18753,-0.186028 z"
         style="fill:#af1821;fill-rule:evenodd;stroke-width:0.26458332"
         id="path3908" />
      <path
         d="m 288.66543,55.470595 -0.11851,0.256408 c -0.16084,-0.135546 -0.18142,-0.185791 -0.3533,-0.29173 z"
         style="fill:#af1821;fill-opacity:1;fill-rule:evenodd;stroke-width:0.26458332"
         id="path3788" />
      <path
         d="m 309.60598,79.975483 h -5.28492 c -0.71384,0 -1.33154,-0.179282 -1.85322,-0.537554 -0.52181,-0.358114 -0.78221,-0.782347 -0.78221,-1.272567 v -4.082547 h 1.97646 c 0,0.628518 -0.0227,1.316805 -0.0686,2.064914 -0.0456,0.747977 -0.0688,1.197346 -0.0688,1.348132 0,0.496675 0.11469,0.818726 0.34337,0.96639 0.22884,0.147691 0.72298,0.221536 1.48233,0.221536 0.21058,0 0.78264,-0.01109 1.71606,-0.03283 0.93343,-0.02204 1.78007,-0.03328 2.53955,-0.03328 z m 2.6356,0 h -1.97649 v -5.892668 h 1.97649 z m 9.91116,0 h -1.99068 v -4.082389 c 0,-0.119486 -0.0686,-0.224763 -0.20566,-0.315727 -0.13729,-0.09125 -0.28847,-0.136737 -0.45302,-0.136737 h -3.96713 c -0.18333,0 -0.33888,0.04408 -0.46691,0.131948 -0.12804,0.08789 -0.1922,0.194866 -0.1922,0.320516 v 4.082389 h -1.97646 v -4.082389 c 0,-0.490246 0.26053,-0.914347 0.78221,-1.272751 0.52168,-0.358246 1.13938,-0.537528 1.85336,-0.537528 h 3.96713 c 0.71358,0 1.33353,0.177588 1.85981,0.532765 0.52618,0.355044 0.78955,0.780971 0.78955,1.277514 z m 8.57945,0 h -5.28492 c -0.71384,0 -1.33154,-0.179282 -1.85335,-0.537554 -0.52168,-0.358114 -0.78224,-0.782347 -0.78224,-1.272567 v -2.272268 c 0,-0.490246 0.26056,-0.914347 0.78224,-1.272751 0.52181,-0.358246 1.13951,-0.537528 1.85335,-0.537528 h 5.20251 v 1.357815 h -5.20251 c -0.32948,0 -0.53557,0.106813 -0.61769,0.320358 -0.0275,0.07567 -0.0414,0.270377 -0.0414,0.584702 h 5.61454 v 1.366917 h -5.61454 v 0.452755 c 0,0.113004 0.0688,0.216747 0.20608,0.311071 0.1373,0.09406 0.28808,0.141235 0.45302,0.141235 h 5.28492 z"
         style="fill:#ffffff;fill-rule:evenodd;stroke-width:0.26458332"
         id="path3790" />
    </g>
  </g>
</svg>
